<?xml version="1.0"?><svg width="782.8114" height="688.75085" xmlns="http://www.w3.org/2000/svg">
 <metadata id="metadata14">image/svg+xml</metadata>

 <g>
  <title>Layer 1</title>
  <path fill="#9e9ca0" id="path2959" d="m369.130585,688.579834c-28.444824,-1.688843 -59.507935,-5.845337 -66.962982,-8.960266c-2.84903,-1.19043 -18.659393,-1.364868 -123.677963,-1.364868l-120.411339,0l0.282181,-3.409485l0.282177,-3.409485l120.012905,-0.45459c109.298447,-0.414001 120.296982,-0.589172 123.195053,-1.962341c3.222626,-1.526978 11.270569,-3.737793 17.501892,-4.807983c2.462952,-0.422974 3.409454,-1.04071 3.409454,-2.225159c0,-0.901733 5.06839,-22.055969 11.263062,-47.009277c6.194672,-24.953369 13.769562,-55.598083 16.833069,-68.099426c3.063507,-12.501343 5.816376,-23.650269 6.117554,-24.775391l0.547546,-2.045715l-64.658417,0l-64.658432,0l0,-8.182678l0,-8.182709l-114.103172,0l-114.103172,0l0,-251.845215l0,-251.845245l391.405701,0l391.405701,0l0,251.845245l0,251.845215l-102.283691,0l-102.283752,0l0,8.182709l0,8.182678l-65.112976,0l-65.112976,0l0.45871,2.045715c0.252289,1.125122 7.633759,31.125916 16.40332,66.668457c8.769531,35.54248 16.449524,67.0672 17.06662,70.054871l1.122009,5.43219l5.869354,1.113403c3.228119,0.612366 8.174896,2.010864 10.992798,3.107788l5.123474,1.994324l119.558319,0.481567l119.558289,0.481567l0.282166,3.409485l0.282166,3.409485l-120.127563,0c-82.869202,0 -120.685974,0.298828 -121.92804,0.963562c-3.682617,1.970886 -24.206512,5.454834 -42.893372,7.281189c-14.489319,1.416138 -27.422882,1.952759 -52.015167,2.15802c-18.001923,0.15033 -35.390167,0.115356 -38.640503,-0.077637zm5.244843,-29.098083l18.428101,-0.60144l-0.244324,-20.088745l-0.244324,-20.088745l-5.909729,-0.216064c-3.250336,-0.118835 -10.720032,-0.900024 -16.599274,-1.736023c-5.879272,-0.835938 -10.835693,-1.352417 -11.014313,-1.147705c-0.178589,0.204712 -2.67453,9.966064 -5.546509,21.691895c-2.872009,11.725769 -5.449371,21.912659 -5.727509,22.637451c-0.41687,1.086304 0.279114,1.215332 3.962067,0.734375c2.457245,-0.320923 12.760376,-0.854187 22.895813,-1.184998zm78.098145,-21.004089c-3.012054,-12.376282 -5.598297,-22.662964 -5.747192,-22.859192c-0.148895,-0.196289 -4.678833,0.317505 -10.066528,1.141663c-5.387695,0.824219 -12.148315,1.496216 -15.023621,1.493347l-5.227844,-0.005249l0,20.456726l0,20.456787l8.864594,0.09021c4.875519,0.049622 12.342224,0.395447 16.592682,0.768433c4.250458,0.372986 9.608276,0.741516 11.90625,0.81897l4.178162,0.140747l-5.476501,-22.502441zm-59.704102,-32.620422l0,-3.299133l-10.228363,0.609619c-5.62561,0.335327 -12.478607,1.068726 -15.228912,1.629883l-5.000549,1.020203l3.63678,0.80011c5.118988,1.12616 15.42395,2.28125 21.593231,2.420471l5.227814,0.117981l0,-3.299133zm40.686188,1.359314c4.125458,-0.53656 7.500824,-1.108887 7.500824,-1.27179c0,-0.603699 -9.781677,-2.125244 -17.047302,-2.651733l-7.500793,-0.543579l0,3.288757l0,3.288757l4.773254,-0.567444c2.625275,-0.312073 8.14859,-1.006409 12.274017,-1.542969zm-58.241211,-12.588013c3.596191,-0.51062 9.017212,-0.928406 12.046753,-0.928406l5.50827,0l0,-36.822144l0,-36.822144l-5.336975,0l-5.336975,0l-1.037628,3.864075c-2.58847,9.639038 -17.378601,70.354248 -17.380432,71.348572c-0.001282,0.709167 0.906219,0.963867 2.49826,0.701111c1.375153,-0.226929 5.442566,-0.830444 9.038727,-1.341064zm57.564575,-36.229858c-5.003418,-20.576843 -9.097137,-37.621826 -9.097137,-37.877625c0,-0.255859 -1.636536,-0.46521 -3.636749,-0.46521l-3.636749,0l0,36.822144l0,36.822144l4.318634,0.078186c2.375275,0.042969 8.000885,0.576477 12.501373,1.185608c4.500458,0.60907 8.287323,1.048889 8.415192,0.977295c0.127899,-0.071533 -3.861176,-16.965698 -8.864563,-37.542542z"/>
  <path fill="#a57f45" id="path2957" d="m399.282806,685.859314c-6.10379,-3.105591 -6.058716,-2.832947 -6.058716,-36.666626l0,-30.489868l-5.455139,-0.210205c-4.737061,-0.182556 -8.894531,-0.677551 -21.820526,-2.598022c-1.500153,-0.2229 -3.800842,-0.623901 -5.11264,-0.891113l-2.38504,-0.48584l-6.609253,27.095276c-3.635071,14.902405 -7.184174,28.237976 -7.886841,29.634644c-1.374298,2.731445 -4.186035,4.179932 -9.600555,4.945862c-2.215424,0.313416 -3.409424,0.121948 -3.409424,-0.54657c0,-0.565918 -0.592896,-1.028931 -1.317535,-1.028931c-1.932495,0 -5.964996,-5.715454 -6.542267,-9.272583c-0.338287,-2.084595 1.012115,-8.93103 4.186005,-21.223145c2.576935,-9.980225 4.843628,-19.168701 5.037048,-20.418823c0.193451,-1.250122 3.397888,-14.342468 7.121033,-29.094055c3.723145,-14.751587 8.696228,-35.003723 11.051331,-45.004822c2.355103,-10.001099 4.855499,-19.995483 5.556427,-22.209778c0.700928,-2.214294 1.274414,-4.771423 1.274414,-5.682434c0,-1.586731 -2.695251,-1.656433 -64.097809,-1.656433c-50.628159,0 -64.115112,-0.238831 -64.180191,-1.136475c-0.045319,-0.625061 -0.038483,-4.307251 0.015182,-8.182678l0.097595,-7.046234l-114.572952,0l-114.572952,0l0,-251.390625l0,-251.390645l391.405701,0l391.405701,0l0,251.390645l0,251.390625l-102.738281,0l-102.738342,0l0,8.182709l0,8.182678l-65.006958,0c-35.753876,0 -65.007019,0.161499 -65.007019,0.358826c0,0.197388 0.767487,2.959045 1.705536,6.137024c1.983643,6.720337 2.928528,10.492798 13.28894,53.05603c4.260193,17.501892 8.961823,36.526672 10.448059,42.277283c9.486206,36.704041 10.990082,46.417175 7.742401,50.005859c-2.174133,2.402405 -6.547638,4.54541 -9.276276,4.54541c-5.52121,0 -11.307648,-6.107117 -12.593964,-13.291931c-0.52005,-2.904846 -4.935791,-21.339233 -10.592468,-44.220459c-0.790894,-3.199219 -1.438141,-4.222168 -2.486786,-3.93042c-1.328583,0.369629 -5.89801,1.135193 -11.648407,1.951721c-1.37381,0.195068 -5.873199,0.628784 -9.998657,0.963867l-7.500793,0.609253l-0.069183,29.186279c-0.074158,31.296875 -0.412323,34.016846 -4.61969,37.158142c-3.255646,2.430664 -8.75238,2.871155 -12.436707,0.996582zm-5.763184,-80.255066l0.295532,-3.097473l-12.56958,0.571411c-6.913269,0.31427 -14.206146,1.043518 -16.20636,1.620483c-3.510681,1.012695 -3.55896,1.078186 -1.39328,1.888062c3.253601,1.216736 13.911255,2.259338 22.304626,2.182007l7.273529,-0.067017l0.295532,-3.097473zm43.164307,1.353333c3.922699,-0.804993 5.083466,-1.327148 3.817963,-1.717407c-3.64743,-1.124939 -13.768158,-2.43457 -18.865662,-2.441284l-5.227844,-0.006836l0,3.299561l0,3.299561l7.31958,-0.63855c4.025787,-0.351135 9.855957,-1.158936 12.955963,-1.795044zm-61.963531,-11.919617c0.859192,-0.165466 5.115143,-0.539673 9.457642,-0.831543c4.342499,-0.291931 8.256622,-0.753967 8.698029,-1.026733c0.442322,-0.273376 0.802612,-16.797058 0.802612,-36.809937l0,-36.313904l-5.812469,0c-4.007385,0 -5.957031,0.37677 -6.278015,1.213257c-0.3526,0.918884 -6.707489,26.07605 -9.3396,36.972656c-0.181152,0.750122 -1.146118,4.636902 -2.144318,8.637329c-0.998169,4.000427 -2.888245,11.72998 -4.200104,17.176819c-1.31189,5.446899 -2.619568,10.514038 -2.905975,11.260376c-0.442261,1.152588 0.283905,1.25647 4.819611,0.689819c2.937195,-0.367004 6.043365,-0.802673 6.902588,-0.96814zm66.05249,-5.335083c-2.299225,-9.05896 -6.162231,-25.112305 -6.695526,-27.824341c-0.245819,-1.250122 -0.676239,-2.886658 -0.956451,-3.63678c-0.280212,-0.750061 -0.70343,-2.386597 -0.940491,-3.636719c-0.461304,-2.432678 -6.08197,-25.314453 -7.634399,-31.079773c-0.882843,-3.278687 -1.132233,-3.469421 -4.535919,-3.469421l-3.601715,0l0,36.822144c0,28.815552 0.247101,36.836853 1.136475,36.889709c0.625092,0.03717 1.954773,0.200745 2.954865,0.363586c1.000122,0.162781 5.050568,0.534729 9.001007,0.826477c3.950409,0.291748 7.365479,0.713379 7.58902,0.93689c0.223511,0.223511 1.512482,0.375 2.86438,0.336548l2.457947,-0.069885l-1.639191,-6.458435z"/>
  <path fill="#ffffff" id="path2951" d="m229.115524,520.055847l0,-8.182678l0,-8.182709l-114.557762,0l-114.557762,0l0,-251.390625l0,-251.390645l391.405701,0l391.405701,0l0,251.390645l0,251.390625l-102.738281,0l-102.738342,0l0,8.182709l0,8.182678l-348.219254,0zm344.582474,-12.728607l0,-8.182709l-170.472839,0l-170.47287,0l0,8.182709l0,8.182709l340.945709,0l0,-8.182709zm-345.491653,-10.455688l0,-2.272949l175.018814,0l175.018799,0l0,2.272949l0,2.27298l100.010742,0l100.010742,0l0,-247.299286l0,-247.299305l-386.859741,0l-386.859761,0l0,247.299305l0,247.299286l111.830197,0l111.830208,0l0,-2.27298zm-211.840954,-243.207947l0,-237.298214l375.94949,0l375.949524,0l0,237.298214l0,237.298218l-375.949524,0l-375.94949,0l0,-237.298218z"/>
  <path fill="#050002" id="path2947" d="m402.315948,686.471863c-1.000092,-0.370605 -2.641998,-0.961487 -3.648651,-1.313049c-1.006653,-0.351624 -2.540924,-1.877441 -3.409454,-3.390747c-1.413055,-2.462097 -1.579163,-5.947998 -1.579163,-33.135681l0,-30.384155l-5.515869,0c-3.033691,0 -10.86261,-0.831116 -17.397552,-1.846924c-6.534943,-1.015808 -12.05127,-1.677368 -12.258484,-1.470154c-0.207214,0.207214 -3.395142,12.463013 -7.084259,27.235046c-3.689117,14.772095 -7.35675,27.849182 -8.150299,29.060303c-3.679871,5.616211 -12.429047,5.771729 -17.050323,0.30304c-4.458069,-5.275452 -4.692719,-3.816711 10.47049,-65.100769c7.732849,-31.253357 15.656189,-63.370422 17.607422,-71.371277l3.547668,-14.547058l-64.365967,-0.233337l-64.365982,-0.233337l0,-8.176666l0,-8.176636l-114.557762,0l-114.557762,0l0,-251.390625l0,-251.390645l391.405701,0l391.405701,0l0,251.390645l0,251.390625l-102.738281,0l-102.738342,0l0,8.182709l0,8.182678l-65.113037,0l-65.113007,0l0.569031,2.045715c0.313019,1.125122 5.911591,23.525208 12.441345,49.778076c23.550293,94.68396 23.490784,94.39447 20.331879,98.904419c-3.411407,4.870483 -11.85141,6.093811 -16.019257,2.32196c-3.217834,-2.912048 -4.274872,-6.084595 -10.743591,-32.245056c-3.482697,-14.084473 -6.462585,-25.738586 -6.621948,-25.897949c-0.159393,-0.159424 -5.383759,0.509277 -11.609741,1.485901c-6.225983,0.976685 -13.038055,1.781067 -15.137939,1.787537l-3.817993,0.01178l-0.273376,29.77594c-0.249756,27.204346 -0.423218,30.06604 -2.008728,33.134827c-2.15094,4.16333 -7.981506,6.765869 -11.902466,5.312866zm8.739288,-7.125977c1.041718,-2.026794 1.304871,-16.13269 1.508698,-80.872498l0.246887,-78.417542l-7.737701,0l-7.737671,0l-0.237305,78.337158c-0.196991,65.026855 -0.024597,78.776306 1.014618,80.921692c2.382782,4.919067 10.420319,4.938416 12.942474,0.031189zm-72.003265,-9.046631c1.833038,-1.499939 3.955933,-9.186707 15.062317,-54.539856c0.417145,-1.703369 -0.148865,-2.338379 -3.47998,-3.904175c-2.187958,-1.028442 -4.429749,-2.861145 -4.98172,-4.072571c-1.510315,-3.314758 2.220551,-7.30249 8.555084,-9.143982c3.188507,-0.926941 4.921814,-1.920715 4.921814,-2.82196c0,-0.765137 4.09137,-17.734558 9.091919,-37.709839c5.000519,-19.97522 9.091888,-36.708374 9.091888,-37.184814c0,-0.48053 -3.424957,-0.866211 -7.693085,-0.866211l-7.693054,0l-0.898529,3.409485c-1.782715,6.764587 -4.631348,18.244446 -8.291046,33.412659c-2.051056,8.500916 -8.820435,36.018616 -15.04306,61.150452c-10.922119,44.111938 -11.267761,45.804749 -9.981476,48.883301c1.990417,4.763672 7.606659,6.441528 11.338928,3.387512zm137.191437,-0.262695c3.636078,-3.387512 4.048523,-1.241699 -15.370514,-79.973145c-4.008484,-16.25177 -9.360718,-37.731384 -11.89386,-47.732422c-2.533142,-10.001099 -4.808502,-19.104309 -5.056335,-20.229431c-0.424011,-1.924805 -0.905304,-2.045715 -8.144989,-2.045715l-7.694336,0l0.620789,2.954895c0.341431,1.625183 4.314728,18.092834 8.829559,36.594849c4.514832,18.501953 8.402649,34.537537 8.639557,35.634521c0.290955,1.347168 1.358643,2.194702 3.289398,2.611206c4.367188,0.942078 9.498962,3.817322 10.64917,5.966492c1.532074,2.862732 -0.623383,6.163086 -5.347717,8.188171c-2.981934,1.278198 -3.81546,2.071533 -3.448273,3.282043c0.266296,0.878052 0.927765,3.64209 1.469879,6.142395c1.88797,8.707214 10.749847,43.658142 11.680634,46.067871c1.762848,4.564026 8.12973,5.936218 11.777039,2.538269zm-83.019318,-56.33429c-0.309082,-0.5 -3.708588,-0.917297 -7.554474,-0.927185c-7.020172,-0.018066 -15.716827,-1.000732 -24.365692,-2.753174c-3.371674,-0.683105 -4.896393,-1.493896 -5.563629,-2.958313c-0.930206,-2.041565 0.316467,-4.271545 2.388,-4.271545c0.491638,0 1.119354,-0.364807 1.394928,-0.81073c0.780701,-1.263184 -7.018707,0.90332 -8.803711,2.445496c-2.310028,1.995728 -2.024353,2.536011 2.27298,4.298645c8.615906,3.534058 41.883331,7.649414 40.231598,4.976807zm41.644897,-0.883057c11.836365,-1.73938 15.226288,-2.56427 19.498016,-4.744446c4.142181,-2.114075 1.826141,-4.527954 -6.176331,-6.437378c-6.774139,-1.616272 -16.298248,-2.803711 -12.689331,-1.582092c1.250122,0.423218 3.778046,1.020569 5.617554,1.327515c1.839539,0.306946 4.268066,1.305847 5.396759,2.219849l2.052185,1.661743l-2.278839,2.278809c-2.54361,2.54364 -8.566406,3.892761 -21.925201,4.911499c-4.375488,0.333618 -7.955414,0.955444 -7.955414,1.381714c0,1.21344 5.249969,0.924133 18.460602,-1.017212zm-41.190308,-6.519348l0,-3.765686l-12.046753,0.501099c-6.625732,0.275574 -14.296997,1.017212 -17.047302,1.64801l-5.000519,1.146851l5.909698,1.237061c3.250366,0.68042 10.819366,1.574585 16.820007,1.987122c6.000641,0.412537 11.012543,0.808777 11.137543,0.880615c0.125031,0.071838 0.227325,-1.563965 0.227325,-3.635071zm43.964691,0.889771c3.322662,-0.646118 4.858887,-1.295715 4.086517,-1.727966c-1.774353,-0.992981 -14.578278,-2.669617 -20.386749,-2.669617l-4.934753,0l0,3.316284l0,3.316284l7.955414,-0.599792c4.375458,-0.329895 10.351257,-1.065735 13.279572,-1.635193zm-7.142548,-8.035645c-3.847229,-1.052979 -14.092438,-1.618835 -14.092438,-0.778442c0,0.38501 2.966217,0.841248 6.591614,1.013855c3.625397,0.172546 7.409882,0.358154 8.410004,0.412415c1.000092,0.05426 0.590973,-0.237305 -0.90918,-0.647827zm-36.822144,-0.955322c0,-0.877686 -15.248352,-0.294678 -16.289642,0.622803c-0.208344,0.183594 3.371582,0.333801 7.955414,0.333801c5.225494,0 8.334229,-0.356812 8.334229,-0.956604zm-20.1763,-2.632874c3.34613,-0.473999 9.254669,-1.12262 13.130066,-1.441345l7.046234,-0.579468l0,-36.744568l0,-36.744568l-6.137024,0.01355l-6.137024,0.01355l-9.000885,36.581299c-4.95047,20.119751 -9.363068,37.297302 -9.805756,38.172363c-0.680847,1.345886 -0.37146,1.591125 2.007782,1.591125c1.546997,0 5.550446,-0.387878 8.896606,-0.861938zm68.856537,-1.183777c-0.345398,-1.125122 -4.586761,-18.272339 -9.425232,-38.104919l-8.79718,-36.059265l-3.864075,-0.314819l-3.864044,-0.314819l0,37.014771l0,37.014771l2.954865,0.449646c3.861176,0.587524 17.683777,2.050476 21.017365,2.224365c2.304352,0.120178 2.533569,-0.101074 1.978302,-1.909729zm131.339081,-87.054779l0,-9.091888l-170.472839,0l-170.47287,0l0,9.091888l0,9.091888l170.47287,0l170.472839,0l0,-9.091888zm-344.749374,-10.228394l0.287689,-2.500244l174.04924,0l174.049225,0l0,2.731537l0,2.731506l100.692627,-0.231262l100.692627,-0.231262l0.228943,-247.526596l0.228943,-247.526585l-387.770569,0l-387.770599,0l0,247.147755c0,135.931274 0.27437,247.42215 0.60969,247.757446c0.33533,0.335358 50.965772,0.505829 112.512097,0.378845l111.902397,-0.230865l0.287689,-2.500275zm-212.583233,-243.435242l0,-237.298214l375.94949,0l375.949524,0l0,237.298214l0,237.298218l-375.949524,0l-375.94949,0l0,-237.298218zm748.033047,-0.222931l0.225464,-233.429823l-371.34671,-0.0065c-260.690384,-0.00457 -371.524252,0.280788 -371.942541,0.9576c-0.327709,0.53026 -0.659309,105.677889 -0.736879,233.661402l-0.141031,232.697296l371.858141,-0.225067l371.858154,-0.225098l0.225403,-233.42981z"/>
 </g>
</svg>